<mxfile host="app.diagrams.net" modified="2021-06-25T17:20:41.522Z" agent="5.0 (Macintosh; Intel Mac OS X 11_2_3) AppleWebKit/537.36 (KHTML, like Gecko) Chrome/89.0.4389.114 Safari/537.36" etag="qUGWkkhmVreJ2A_SXfja" version="14.8.1" type="github">
  <diagram id="prtHgNgQTEPvFCAcTncT" name="Page-1">
    <mxGraphModel dx="946" dy="557" grid="1" gridSize="10" guides="1" tooltips="1" connect="1" arrows="1" fold="1" page="1" pageScale="1" pageWidth="827" pageHeight="1169" math="0" shadow="0">
      <root>
        <mxCell id="0" />
        <mxCell id="1" parent="0" />
        <mxCell id="cX_7FnWVeOlu4-viUMbo-1" value="" style="rounded=0;whiteSpace=wrap;html=1;" vertex="1" parent="1">
          <mxGeometry x="90" y="70" width="630" height="370" as="geometry" />
        </mxCell>
        <mxCell id="cX_7FnWVeOlu4-viUMbo-2" value="" style="rounded=0;whiteSpace=wrap;html=1;" vertex="1" parent="1">
          <mxGeometry x="130" y="90" width="290" height="130" as="geometry" />
        </mxCell>
        <mxCell id="cX_7FnWVeOlu4-viUMbo-3" value="" style="rounded=0;whiteSpace=wrap;html=1;" vertex="1" parent="1">
          <mxGeometry x="130" y="270" width="290" height="140" as="geometry" />
        </mxCell>
        <mxCell id="cX_7FnWVeOlu4-viUMbo-4" value="" style="endArrow=classic;html=1;entryX=0.807;entryY=1;entryDx=0;entryDy=0;entryPerimeter=0;" edge="1" parent="1" target="cX_7FnWVeOlu4-viUMbo-2">
          <mxGeometry width="50" height="50" relative="1" as="geometry">
            <mxPoint x="364" y="268" as="sourcePoint" />
            <mxPoint x="440" y="250" as="targetPoint" />
          </mxGeometry>
        </mxCell>
        <mxCell id="cX_7FnWVeOlu4-viUMbo-5" value="" style="endArrow=classic;html=1;entryX=0.231;entryY=0.992;entryDx=0;entryDy=0;entryPerimeter=0;exitX=0.231;exitY=0;exitDx=0;exitDy=0;exitPerimeter=0;" edge="1" parent="1" source="cX_7FnWVeOlu4-viUMbo-3" target="cX_7FnWVeOlu4-viUMbo-2">
          <mxGeometry width="50" height="50" relative="1" as="geometry">
            <mxPoint x="345" y="266" as="sourcePoint" />
            <mxPoint x="345.03" y="218" as="targetPoint" />
          </mxGeometry>
        </mxCell>
        <mxCell id="cX_7FnWVeOlu4-viUMbo-6" value="" style="endArrow=none;html=1;" edge="1" parent="1">
          <mxGeometry width="50" height="50" relative="1" as="geometry">
            <mxPoint x="40" y="114" as="sourcePoint" />
            <mxPoint x="90" y="114" as="targetPoint" />
          </mxGeometry>
        </mxCell>
      </root>
    </mxGraphModel>
  </diagram>
</mxfile>
